<?xml version="1.0" encoding="UTF-8" standalone="no"?>
<!DOCTYPE svg PUBLIC "-//W3C//DTD SVG 1.1//EN" "http://www.w3.org/Graphics/SVG/1.1/DTD/svg11.dtd">
<svg version="1.1" xmlns="http://www.w3.org/2000/svg" xmlns:xlink="http://www.w3.org/1999/xlink" preserveAspectRatio="xMidYMid meet" viewBox="0 0 640 640" width="640" height="640"><defs><path d="M315.42 393.53L312.11 396.34L299.29 394.9L286.07 397.12L276.05 401.81L267.26 404.53L258.47 407.25L249.59 406.25L318.85 505.13L353.09 551.35L379.03 600.34L400.36 628.16L418.13 634.4L429.9 636.25L439.99 635.27L453.69 628.87L463.27 623.59L466.39 618.11L467.27 610.27L465.25 601.57L451.04 581.43L432.77 561.9L411.26 535.65L382.5 489.52L348.54 436.45L323.02 397.03L314.91 389.24L315.42 393.53Z" id="c4hDYHkae9"></path><path d="M432.63 591.88L427.73 586.62L422.24 581.92L417.57 583.02L414.23 588.87L414.82 593.7L425.69 602.65L429.61 600.94L432.81 597.78L432.63 591.88Z" id="dj7ahf8lN"></path><path d="M317.11 393.74C315.17 395.29 314.09 396.15 313.87 396.33C313.87 396.33 304.63 395.01 301.67 394.68C298.71 394.34 291.57 398.08 291.57 398.08C291.15 398.25 289.06 399.07 285.3 400.55L278.1 402.39L270.91 404.23L259.99 407.56L255.87 406.97L251.7 406.78L138.78 247.44L61.4 149.77L145.81 109.48L146.4 104.25L157.3 104.94L167.51 102.91L186.72 100.84L204.79 95.46L225.53 93.02L251.26 90.62L266.51 97.1L273.75 103.74L284.7 112.92L290.28 120.96L295.63 131.09L298.4 142L298.09 153.61L293.72 165.83L289.79 178.63L285.57 185.04L208.44 213.97L232.22 251.06C241.31 250.18 246.35 249.69 247.36 249.59C247.36 249.59 252.59 247.53 254.62 247.23C256.65 246.93 261.2 246.38 261.2 246.38C262.53 245.82 269.17 243.04 281.11 238.03L282.14 246.62L282.33 258.29L276.18 272.96L267.73 281.54L264.52 292.3L266.25 303.61L273.53 318.73L316.4 389.27L317.11 393.74Z" id="aeVEJk1In"></path><path d="M295.72 183.4L291.41 187.23L285.42 192.09L276.78 195.14L262.98 199.87L243.36 205.71L229.76 210.72L221.44 213.05L239.72 249.91L247.7 249.54L261.26 246.79L271.53 241.95L282.52 236.76C290.38 232.67 294.74 230.4 295.61 229.94C295.61 229.94 307.39 224.23 308.33 224.33C309.27 224.44 316.69 217.48 316.51 216.95C313.74 212.48 306.81 201.29 295.72 183.4Z" id="c6uC6AvXEU"></path><path d="M287.72 181.86L283.28 184.97L276.11 188.71L269.44 191.14L262.62 193.75L248.27 199.17L235.41 203.97L223.33 208.14L218.24 210.19L221.86 212.75L247.95 204.12L285.31 192.23L295.29 183.55L287.72 181.86Z" id="aAxUFJvNU"></path><path d="M221.22 212.69L217.93 210.31L208.77 213.8L232.39 250.88L239.34 250.17L221.22 212.69Z" id="b12uhVRiW"></path><path d="M137.39 94.15L118.49 91.53L117.02 96.14L108.75 95.96L108.1 99.66L101.05 99.12L100.02 104.03L91.72 104.1L91.85 107.13L84.8 106.59L84.71 111.61L77.64 111.32L77.11 116.03L69.21 114.64L68.36 120.08L61.08 119.51L60.37 123.7L52.91 122.61L52.4 127.08L40.98 127.56L61.44 149.97L144.61 110.05L147.66 106.12L137.39 94.15Z" id="a1vNgqIAGp"></path><path d="M128.41 98.17L116.65 96.35L115.98 100.66C111.26 99.93 108.63 99.52 108.1 99.44C107.83 101.39 107.79 102.44 107.29 105.3C106.81 105.24 104.41 104.92 100.1 104.33L99.47 107.93L91.9 107.29L91.11 112.06L84.56 111.47L84.46 116.96L77.12 116.12L76.27 121.25L68.45 119.78L67.82 123.89L60.53 123.38L59.9 127.7L52.41 126.8L52.11 131.83L45.33 132.25L40.89 127.47L52.43 126.83L52.78 122.73L60.36 123.54L61.12 119.44L68.5 120.04L69.15 114.64L77 116.1L77.69 111.32L84.58 111.48L84.67 106.82L91.93 107.28L91.8 104.23L100.18 104.09L101.32 99.09L108.03 99.59L108.83 96.13L117.08 96.43L118.28 91.75L128.73 93.18L128.41 98.17Z" id="a1Nyq7yoYW"></path><path d="M196.32 38.05L184.27 23.75L160.46 8.12L132.17 1.24L104.7 0L80.92 4.72L59.85 13.76L30.75 34.84L16.47 48.04L2.18 69.24L0 78.25L3 82.59L9.81 89.21L18.28 83.69L114.54 57.22L128.6 58.8L143.67 61.73L148.8 67.85L158.55 81.9L174.66 102.93L229.54 92.42L196.32 38.05Z" id="a4iOTE9yO0"></path><path d="M114.28 60.78L109.46 59.65L107.66 62.56L103.94 60.71L103.46 64.04L98.95 62.27L98.28 65.88L90.96 64.33L90.37 67.19L84.73 65.89L84.39 68.9L79.78 67.53L79.47 70.29L75.87 68.76L75.81 71.82L70.86 69.97L70.63 72.21L66.36 70.88L66.6 73.93L63.06 71.88L63.38 75.01L58.11 72.57L57.33 76.72L53.38 74.08L51.05 78.19L46.51 76.55L45.13 80.43L42.24 77.74L41.88 81.63L38.75 78.5L36.5 82.92L33.65 80.24L31.94 83.89L29.16 81.43L28.04 84.43L25.37 82.3L24.56 85.79L21.43 83.39L21.69 86.86L17.9 83.87L18.75 88.46L15.83 85.81L16.33 89.21L13.06 87.18L14.46 90.61L10.1 89.19L18.06 83.89L115.04 57.36L114.28 60.78Z" id="alebWO99b"></path><path d="M163.18 103.66L138.69 67.44L123.83 64.21L114.47 61.02L115.45 57.24L144.52 61.28L174.58 102.68L163.18 103.66Z" id="c1dx5C3Lb"></path><path d="M138.06 58.36C141.96 57.4 144.13 56.86 144.56 56.76C144.56 56.76 151.46 54.03 152.17 52.66C152.87 51.28 155.51 44.87 155.51 44.87C154.96 43.93 150.53 36.44 149.97 35.5C149.97 35.5 143.38 33.01 142.33 32.6C141.28 32.19 136.19 31.04 136.19 31.04C135.42 31.14 131.61 31.69 124.74 32.66C78.39 48.96 52.64 58.02 47.49 59.83C47.49 59.83 40.42 63.99 38.67 64.96C36.91 65.93 15.95 83.69 15.95 83.69C22.51 81.92 55.29 73.07 114.29 57.14L138.06 58.36Z" id="c77hKD0NrK"></path><path d="M99.83 156.38C100.62 149.39 106.11 144.26 112.11 144.93C118.1 145.61 122.33 151.83 121.54 158.82C120.75 165.82 115.25 170.94 109.26 170.27C103.27 169.59 99.04 163.38 99.83 156.38Z" id="a1BcUt36w"></path><path d="M307.08 228.39L311.12 228L309.33 236.85L316.44 237.64L315.7 246.61L323.89 247.25L322.98 255.35L329.4 257.48L329.37 264.83L335.63 266.1L334.68 274.48L340.44 275.41L339.66 282.39L345.71 283.07L345.22 289.8L350.72 290.7L349.64 297.94L355.96 298.65L355.31 306.77L360.97 308.54L360.45 315.55L365.45 316.12L366.34 322.44L365.56 329.42L359.18 336.34L350.92 341.06L344.09 342.56L338.37 343.61L329.16 342.57L327.01 340.35L316.98 339.51L316.72 334.67L316.96 330.17L309.62 329.06L309.82 322.58L304.09 321.37L305.65 312.22L298.28 311.39L298.93 303.26L290.97 302.93L292.24 294.02L285.52 292.14L286.96 284.1L280.14 283.05L281.91 274.48L275.59 273.66L277.74 269.95C280.31 263.18 281.74 259.42 282.02 258.67C282.02 258.67 281.33 238.81 281.45 237.69C283.1 236.84 291.33 232.55 306.15 224.84L307.08 228.39Z" id="b1cs4tFupu"></path><path d="M358.85 339.74L346.97 345.76L336.89 347.74L323.67 346.81L314.44 343.51L313.83 339.49L306.19 338.63L306.52 331.03L300 329.73L299.98 320.4L294.89 320.67L295.33 311.96L288.26 310.88L288.77 301.6L280.81 301.27L281.19 293.12L276.52 292.02L277.49 283.37L270.18 279.63L275.2 273.51L282.44 274.88L281.21 283.5L288.11 283.71L286.38 292L292.58 293.8L291.8 303.08L298.94 303.6L299.38 311.56L305.63 312.83L303.93 320.84L311.01 321.92L310.39 329.77L316.57 330.06L317.84 339.37L327.55 339.86L328.44 342.26L337.66 343.3L346.83 342.35L354.34 339.52L360.14 335.36L366.13 329.53L358.85 339.74Z" id="a1mMPY8H2G"></path><path d="M513.86 102.17L525.62 100.35L526.28 104.66C531.01 103.93 533.64 103.52 534.16 103.44C534.43 105.39 534.48 106.44 534.98 109.3C535.46 109.24 537.85 108.92 542.17 108.33L542.8 111.93L550.37 111.29L551.15 116.06L557.71 115.47L557.81 120.96L565.15 120.12L566 125.25L573.82 123.78L574.45 127.89L581.74 127.38L582.36 131.7L589.86 130.8L590.16 135.83L596.94 136.25L601.38 131.47L589.84 130.83L589.49 126.73L581.91 127.54L581.14 123.44L573.77 124.04L573.12 118.64L565.27 120.1L564.58 115.32L557.69 115.48L557.6 110.82L550.33 111.28L550.46 108.23L542.09 108.09L540.95 103.09L534.23 103.59L533.44 100.13L525.19 100.43L523.99 95.75L513.54 97.18L513.86 102.17Z" id="a3vp3VcPAA"></path><path d="M326.84 397.53L330.16 400.34L342.97 398.9L356.2 401.12L366.22 405.81L375.01 408.53L383.8 411.25L392.67 410.25L323.42 509.13L289.18 555.35L263.24 604.34L241.91 632.16L224.14 638.4L212.37 640.25L202.27 639.27L188.57 632.87L178.99 627.59L175.88 622.11L175 614.27L177.02 605.57L191.23 585.43L209.5 565.9L231.01 539.65L259.76 493.52L293.73 440.45L319.25 401.03L327.36 393.24L326.84 397.53Z" id="l1gq0WM5oo"></path><path d="M325.16 397.74C327.1 399.29 328.18 400.15 328.39 400.33C328.39 400.33 337.64 399.01 340.6 398.68C343.56 398.34 350.7 402.08 350.7 402.08C351.12 402.25 353.21 403.07 356.97 404.55L364.17 406.39L371.36 408.23L382.28 411.56L386.4 410.97L390.57 410.78L503.49 251.44L580.87 153.77L496.46 113.48L495.87 108.25L484.97 108.94L474.76 106.91L455.55 104.84L437.47 99.46L416.73 97.02L391 94.62L375.76 101.1L368.52 107.74L357.57 116.92L351.98 124.96L346.63 135.09L343.87 146L344.17 157.61L348.54 169.83L352.48 182.63L356.69 189.04L433.83 217.97L410.05 255.06C400.96 254.18 395.91 253.69 394.9 253.59C394.9 253.59 389.68 251.53 387.65 251.23C385.62 250.93 381.07 250.38 381.07 250.38C379.74 249.82 373.1 247.04 361.16 242.03L360.13 250.62L359.94 262.29L366.08 276.96L374.54 285.54L377.74 296.3L376.02 307.61L368.74 322.73L325.87 393.27L325.16 397.74Z" id="d2ryneSKno"></path><path d="M346.55 187.4L350.85 191.23L356.85 196.09L365.49 199.14L379.29 203.87L398.91 209.71L412.5 214.72L420.82 217.05L402.55 253.91L394.56 253.54L381.01 250.79L370.74 245.95L359.74 240.76C351.89 236.67 347.53 234.4 346.65 233.94C346.65 233.94 334.87 228.23 333.94 228.33C333 228.44 325.58 221.48 325.76 220.95C328.53 216.48 335.46 205.29 346.55 187.4Z" id="d86ZGOyD3M"></path><path d="M354.55 185.86L358.99 188.97L366.16 192.71L372.83 195.14L379.64 197.75L394 203.17L406.86 207.97L418.94 212.14L424.02 214.19L420.41 216.75L394.32 208.12L356.96 196.23L346.98 187.55L354.55 185.86Z" id="b1Eeh70FHg"></path><path d="M421.05 216.69L424.34 214.31L433.5 217.8L409.88 254.88L402.93 254.17L421.05 216.69Z" id="c14HFulc23"></path><path d="M504.88 98.15L523.78 95.53L525.24 100.14L533.52 99.96L534.17 103.66L541.22 103.12L542.25 108.03L550.55 108.1L550.42 111.13L557.46 110.59L557.55 115.61L564.63 115.32L565.16 120.03L573.06 118.64L573.91 124.08L581.19 123.51L581.9 127.7L589.36 126.61L589.86 131.08L601.29 131.56L580.83 153.97L497.66 114.05L494.61 110.12L504.88 98.15Z" id="bv6d8NrSk"></path><path d="M209.64 595.88L214.54 590.62L220.03 585.92L224.7 587.02L228.04 592.87L227.44 597.7L216.58 606.65L212.66 604.94L209.45 601.78L209.64 595.88Z" id="fD3cIgnwS"></path><path d="M445.95 42.05L458 27.75L481.81 12.12L510.1 5.24L537.57 4L561.35 8.72L582.42 17.76L611.52 38.84L625.79 52.04L640.09 73.24L642.27 82.25L639.27 86.59L632.46 93.21L623.99 87.69L527.73 61.22L513.67 62.8L498.59 65.73L493.47 71.85L483.72 85.9L467.61 106.93L412.73 96.42L445.95 42.05Z" id="aKwM87ZkZ"></path><path d="M527.98 64.78L532.81 63.65L534.6 66.56L538.32 64.71L538.8 68.04L543.32 66.27L543.99 69.88L551.31 68.33L551.9 71.19L557.54 69.89L557.87 72.9L562.49 71.53L562.8 74.29L566.39 72.76L566.46 75.82L571.41 73.97L571.64 76.21L575.91 74.88L575.67 77.93L579.21 75.88L578.89 79.01L584.16 76.57L584.94 80.72L588.89 78.08L591.22 82.19L595.76 80.55L597.14 84.43L600.03 81.74L600.39 85.63L603.51 82.5L605.77 86.92L608.62 84.24L610.32 87.89L613.11 85.43L614.23 88.43L616.9 86.3L617.7 89.79L620.83 87.39L620.58 90.86L624.37 87.87L623.52 92.46L626.43 89.81L625.94 93.21L629.21 91.18L627.81 94.61L632.16 93.19L624.21 87.89L527.23 61.36L527.98 64.78Z" id="a6h2mJ9TS9"></path><path d="M479.09 107.66L503.57 71.44L518.43 68.21L527.8 65.02L526.82 61.24L497.75 65.28L467.68 106.68L479.09 107.66Z" id="a2Yir1KJqj"></path><path d="M504.21 62.36C500.31 61.4 498.14 60.86 497.71 60.76C497.71 60.76 490.81 58.03 490.1 56.66C489.4 55.28 486.75 48.87 486.75 48.87C487.31 47.93 491.74 40.44 492.29 39.5C492.29 39.5 498.88 37.01 499.94 36.6C500.99 36.19 506.08 35.04 506.08 35.04C506.84 35.14 510.66 35.69 517.53 36.66C563.88 52.96 589.63 62.02 594.78 63.83C594.78 63.83 601.84 67.99 603.6 68.96C605.36 69.93 626.32 87.69 626.32 87.69C619.76 85.92 586.98 77.07 527.98 61.14L504.21 62.36Z" id="b2vWLZiHec"></path><path d="M542.44 160.38C541.65 153.39 536.15 148.26 530.16 148.93C524.16 149.61 519.94 155.83 520.73 162.82C521.52 169.82 527.01 174.94 533.01 174.27C539 173.59 543.22 167.38 542.44 160.38Z" id="hRYcnfB2o"></path><path d="M335.19 232.39L331.14 232L332.94 240.85L325.83 241.64L326.57 250.61L318.38 251.25L319.29 259.35L312.87 261.48L312.9 268.83L306.64 270.1L307.58 278.48L301.82 279.41L302.61 286.39L296.55 287.07L297.04 293.8L291.55 294.7L292.63 301.94L286.31 302.65L286.96 310.77L281.29 312.54L281.81 319.55L276.81 320.12L275.93 326.44L276.71 333.42L283.09 340.34L291.35 345.06L298.18 346.56L303.9 347.61L313.11 346.57L315.26 344.35L325.29 343.51L325.55 338.67L325.31 334.17L332.65 333.06L332.45 326.58L338.18 325.37L336.62 316.22L343.99 315.39L343.34 307.26L351.3 306.93L350.03 298.02L356.75 296.14L355.31 288.1L362.12 287.05L360.36 278.48L366.68 277.66L364.53 273.95C361.96 267.18 360.53 263.42 360.24 262.67C360.24 262.67 360.94 242.81 360.82 241.69C359.17 240.84 350.94 236.55 336.12 228.84L335.19 232.39Z" id="a5lF1V2m1C"></path><path d="M283.42 343.74L295.29 349.76L305.38 351.74L318.6 350.81L327.83 347.51L328.44 343.49L336.07 342.63L335.75 335.03L342.27 333.73L342.29 324.4L347.38 324.67L346.93 315.96L354.01 314.88L353.5 305.6L361.46 305.27L361.08 297.12L365.75 296.02L364.78 287.37L372.09 283.63L367.07 277.51L359.82 278.88L361.06 287.5L354.15 287.71L355.89 296L349.69 297.8L350.47 307.08L343.33 307.6L342.89 315.56L336.64 316.83L338.34 324.84L331.26 325.92L331.88 333.77L325.7 334.06L324.43 343.37L314.72 343.86L313.82 346.26L304.61 347.3L295.44 346.35L287.93 343.52L282.13 339.36L276.14 333.53L283.42 343.74Z" id="b1wUwIx5VW"></path></defs><g visibility="inherit"><g visibility="inherit"><g visibility="inherit"><use xlink:href="#c4hDYHkae9" opacity="1" fill="#342622" fill-opacity="1"></use><g><use xlink:href="#c4hDYHkae9" opacity="1" fill-opacity="0" stroke="#000000" stroke-width="1" stroke-opacity="1"></use></g></g><g visibility="inherit"><use xlink:href="#dj7ahf8lN" opacity="1" fill="#ffffff" fill-opacity="1"></use><g><use xlink:href="#dj7ahf8lN" opacity="1" fill-opacity="0" stroke="#000000" stroke-width="1" stroke-opacity="1"></use></g></g><g visibility="inherit"><use xlink:href="#aeVEJk1In" opacity="1" fill="#eb4907" fill-opacity="1"></use><g><use xlink:href="#aeVEJk1In" opacity="1" fill-opacity="0" stroke="#000000" stroke-width="1" stroke-opacity="1"></use></g></g><g visibility="inherit"><use xlink:href="#c6uC6AvXEU" opacity="1" fill="#68544d" fill-opacity="1"></use><g><use xlink:href="#c6uC6AvXEU" opacity="1" fill-opacity="0" stroke="#000000" stroke-width="1" stroke-opacity="1"></use></g></g><g visibility="inherit"><use xlink:href="#aAxUFJvNU" opacity="1" fill="#581503" fill-opacity="1"></use><g><use xlink:href="#aAxUFJvNU" opacity="1" fill-opacity="0" stroke="#000000" stroke-width="1" stroke-opacity="1"></use></g></g><g visibility="inherit"><use xlink:href="#b12uhVRiW" opacity="1" fill="#220e0b" fill-opacity="1"></use><g><use xlink:href="#b12uhVRiW" opacity="1" fill-opacity="0" stroke="#000000" stroke-width="1" stroke-opacity="1"></use></g></g><g visibility="inherit"><use xlink:href="#a1vNgqIAGp" opacity="1" fill="#9e9393" fill-opacity="1"></use><g><use xlink:href="#a1vNgqIAGp" opacity="1" fill-opacity="0" stroke="#000000" stroke-width="1" stroke-opacity="1"></use></g></g><g visibility="inherit"><use xlink:href="#a1Nyq7yoYW" opacity="1" fill="#000000" fill-opacity="1"></use><g><use xlink:href="#a1Nyq7yoYW" opacity="1" fill-opacity="0" stroke="#000000" stroke-width="1" stroke-opacity="1"></use></g></g><g visibility="inherit"><use xlink:href="#a4iOTE9yO0" opacity="1" fill="#9e9393" fill-opacity="1"></use><g><use xlink:href="#a4iOTE9yO0" opacity="1" fill-opacity="0" stroke="#000000" stroke-width="1" stroke-opacity="1"></use></g></g><g visibility="inherit"><use xlink:href="#alebWO99b" opacity="1" fill="#a19185" fill-opacity="1"></use><g><use xlink:href="#alebWO99b" opacity="1" fill-opacity="0" stroke="#000000" stroke-width="1" stroke-opacity="1"></use></g></g><g visibility="inherit"><use xlink:href="#c1dx5C3Lb" opacity="1" fill="#1a1a1a" fill-opacity="1"></use><g><use xlink:href="#c1dx5C3Lb" opacity="1" fill-opacity="0" stroke="#000000" stroke-width="1" stroke-opacity="1"></use></g></g><g visibility="inherit"><use xlink:href="#c77hKD0NrK" opacity="1" fill="#d6d4d4" fill-opacity="1"></use><g><use xlink:href="#c77hKD0NrK" opacity="1" fill-opacity="0" stroke="#000000" stroke-width="1" stroke-opacity="1"></use></g></g><g visibility="inherit"><use xlink:href="#a1BcUt36w" opacity="1" fill="#000000" fill-opacity="1"></use><g><use xlink:href="#a1BcUt36w" opacity="1" fill-opacity="0" stroke="#000000" stroke-width="1" stroke-opacity="0"></use></g></g><g visibility="inherit"><use xlink:href="#b1cs4tFupu" opacity="1" fill="#a59489" fill-opacity="1"></use><g><use xlink:href="#b1cs4tFupu" opacity="1" fill-opacity="0" stroke="#000000" stroke-width="1" stroke-opacity="1"></use></g></g><g visibility="inherit"><use xlink:href="#a1mMPY8H2G" opacity="1" fill="#000000" fill-opacity="1"></use><g><use xlink:href="#a1mMPY8H2G" opacity="1" fill-opacity="0" stroke="#000000" stroke-width="1" stroke-opacity="1"></use></g></g><g visibility="inherit"><use xlink:href="#a3vp3VcPAA" opacity="1" fill="#000000" fill-opacity="1"></use><g><use xlink:href="#a3vp3VcPAA" opacity="1" fill-opacity="0" stroke="#000000" stroke-width="1" stroke-opacity="1"></use></g></g><g visibility="inherit"><use xlink:href="#l1gq0WM5oo" opacity="1" fill="#342622" fill-opacity="1"></use><g><use xlink:href="#l1gq0WM5oo" opacity="1" fill-opacity="0" stroke="#000000" stroke-width="1" stroke-opacity="1"></use></g></g><g visibility="inherit"><use xlink:href="#d2ryneSKno" opacity="1" fill="#eb4907" fill-opacity="1"></use><g><use xlink:href="#d2ryneSKno" opacity="1" fill-opacity="0" stroke="#000000" stroke-width="1" stroke-opacity="1"></use></g></g><g visibility="inherit"><use xlink:href="#d86ZGOyD3M" opacity="1" fill="#68544d" fill-opacity="1"></use><g><use xlink:href="#d86ZGOyD3M" opacity="1" fill-opacity="0" stroke="#000000" stroke-width="1" stroke-opacity="1"></use></g></g><g visibility="inherit"><use xlink:href="#b1Eeh70FHg" opacity="1" fill="#581503" fill-opacity="1"></use><g><use xlink:href="#b1Eeh70FHg" opacity="1" fill-opacity="0" stroke="#000000" stroke-width="1" stroke-opacity="1"></use></g></g><g visibility="inherit"><use xlink:href="#c14HFulc23" opacity="1" fill="#220e0b" fill-opacity="1"></use><g><use xlink:href="#c14HFulc23" opacity="1" fill-opacity="0" stroke="#000000" stroke-width="1" stroke-opacity="1"></use></g></g><g visibility="inherit"><use xlink:href="#bv6d8NrSk" opacity="1" fill="#9e9393" fill-opacity="1"></use><g><use xlink:href="#bv6d8NrSk" opacity="1" fill-opacity="0" stroke="#000000" stroke-width="1" stroke-opacity="1"></use></g></g><g visibility="inherit"><use xlink:href="#fD3cIgnwS" opacity="1" fill="#ffffff" fill-opacity="1"></use><g><use xlink:href="#fD3cIgnwS" opacity="1" fill-opacity="0" stroke="#000000" stroke-width="1" stroke-opacity="1"></use></g></g><g visibility="inherit"><use xlink:href="#aKwM87ZkZ" opacity="1" fill="#9e9393" fill-opacity="1"></use><g><use xlink:href="#aKwM87ZkZ" opacity="1" fill-opacity="0" stroke="#000000" stroke-width="1" stroke-opacity="1"></use></g></g><g visibility="inherit"><use xlink:href="#a6h2mJ9TS9" opacity="1" fill="#a19185" fill-opacity="1"></use><g><use xlink:href="#a6h2mJ9TS9" opacity="1" fill-opacity="0" stroke="#000000" stroke-width="1" stroke-opacity="1"></use></g></g><g visibility="inherit"><use xlink:href="#a2Yir1KJqj" opacity="1" fill="#1a1a1a" fill-opacity="1"></use><g><use xlink:href="#a2Yir1KJqj" opacity="1" fill-opacity="0" stroke="#000000" stroke-width="1" stroke-opacity="1"></use></g></g><g visibility="inherit"><use xlink:href="#b2vWLZiHec" opacity="1" fill="#d6d4d4" fill-opacity="1"></use><g><use xlink:href="#b2vWLZiHec" opacity="1" fill-opacity="0" stroke="#000000" stroke-width="1" stroke-opacity="1"></use></g></g><g visibility="inherit"><use xlink:href="#hRYcnfB2o" opacity="1" fill="#000000" fill-opacity="1"></use><g><use xlink:href="#hRYcnfB2o" opacity="1" fill-opacity="0" stroke="#000000" stroke-width="1" stroke-opacity="0"></use></g></g><g visibility="inherit"><use xlink:href="#a5lF1V2m1C" opacity="1" fill="#a59489" fill-opacity="1"></use><g><use xlink:href="#a5lF1V2m1C" opacity="1" fill-opacity="0" stroke="#000000" stroke-width="1" stroke-opacity="1"></use></g></g><g visibility="inherit"><use xlink:href="#b1wUwIx5VW" opacity="1" fill="#000000" fill-opacity="1"></use><g><use xlink:href="#b1wUwIx5VW" opacity="1" fill-opacity="0" stroke="#000000" stroke-width="1" stroke-opacity="1"></use></g></g></g></g></svg>