<svg width="10" height="10" xmlns="http://www.w3.org/2000/svg" stroke="null" style="vector-effect: non-scaling-stroke;">
 <!-- Created with Method Draw - http://github.com/duopixel/Method-Draw/ -->

 <g stroke="null">
  <title stroke="null">background</title>
  <rect stroke="null" fill="none" id="canvas_background" height="12" width="12" y="-1" x="-1"/>
  <g stroke="null" style="vector-effect: non-scaling-stroke;" display="none" overflow="visible" y="0" x="0" height="100%" width="100%" id="canvasGrid">
   <rect stroke="null" fill="url(#gridpattern)" stroke-width="0" y="0" x="0" height="100%" width="100%"/>
  </g>
 </g>
 <g stroke="null">
  <title stroke="null">Layer 1</title>
  <metadata stroke="null" style="vector-effect: non-scaling-stroke;" transform="matrix(0.03734692189118505,0,0,0.03734692189118505,0,0) ">image/svg+xmlOpenclipartPipe wrench2006-12-30T14:46:13clip art, clipart, image, media, plumbing, png, public domain, svg, tool, work, wrench,http://openclipart.org/detail/2507/pipe-wrench-by-machovkaMachovkaclip artclipartimagemediaplumbingpngpublic domainsvgtoolworkwrench</metadata>
  <metadata transform="matrix(0.009955169847126522,0,0,0.009955169847126522,0,0) " id="svg_77">image/svg+xml</metadata>
  <g stroke="null" id="svg_80">
   <g stroke="null" transform="matrix(0.0298593647829164,0,0,0.03329269140434826,-14.655187071028067,-17.278806164837977) " id="svg_79">
    <title stroke="null" transform="translate(2.067329168319702,0) translate(-2.067303419113159,11.124670028686523) translate(5.684341886080802e-14,0.0000035806442610919476) translate(5.684341886080802e-14,0.0000035806442610919476) translate(5.684341886080802e-14,0.0000035806442610919476) translate(5.684341886080802e-14,-11.124567985534668) translate(-0.00000798471683083335,0) translate(0.0000059885378504986875,0) translate(-0.00000798471683083335,0) translate(-0.00000798471683083335,0) translate(2.067329168319702,0) translate(-2.067303419113159,15.639297485351562) translate(0,2.067303419113159) translate(0,2.067303419113159) translate(0,2.067303419113159) translate(0,2.067303419113159) translate(0,2.067303419113159) translate(0,2.067303419113159) translate(0,2.067303419113159) translate(0,2.067303419113159) translate(0,-7.732293605804443) translate(-8.269322395324707,0) translate(-5.684341886080802e-14,16.680057525634766) translate(17.83857536315918,0) translate(39.32551956176758,5.684341886080802e-14) translate(5.684341886080802e-14,36.77156066894531) translate(0,100.15605926513672) translate(0.000031823725294088945,5.684341886080802e-14) translate(107.11226654052734,5.684341886080802e-14) translate(0,31.887479782104492) translate(7.97073221206665,0) translate(334.8342590332031,279.0285339355469) translate(-1849.559814453125,-1817.6708984375) translate(1708.3095703125,0) translate(0,1742.121826171875) ">Layer 1</title>
    <g stroke="null" id="svg_60">
     <g stroke="null" id="svg_69" transform="rotate(-39.54859924316406 625.7318115234374,681.9432373046875) ">
      <g stroke="null" id="svg_70">
       <path stroke="null" id="svg_76" d="m604.130272,497.519673c13.995087,-10.095352 34.98584,-7.244209 62.456268,7.788643c1.906525,1.043221 3.02002,2.951874 3.02002,5.17659l0,8.085274l-1.453583,1.239075l-1.453522,-1.239075l-1.453552,1.239075l-1.453522,-1.239075l-1.453583,1.239075l-1.452942,-1.239075l-1.453522,1.239075l-1.453552,-1.239075l-1.453522,1.239075l-1.453522,-1.239075l-1.453583,1.239075l-1.453491,-1.239075l-1.452972,1.239075l-1.453583,-1.239075l-1.453522,1.239075l-1.453552,-1.239075l-1.453522,1.239075l-1.453522,-1.239075l-1.453583,1.239075l-1.452942,-1.239075l-1.453491,1.239075l-1.453583,-1.239075l-1.453522,1.239075l-1.453583,-1.239075l-1.453491,1.239075l-1.453583,-1.239075l-1.452911,1.239075l-1.453583,-1.239075l-1.453491,1.239075l-1.453583,-1.239075l-0.63205,0c-1.253174,0 -2.274414,1.052574 -2.274414,2.344238l0,141.503731c0,7.879974 -6.254974,14.326294 -13.899734,14.326294l0,0c-7.645416,0 -13.89978,-6.44632 -13.89978,-14.326294c0,-53.456772 0,-91.406265 0,-143.457481c0,-10.545288 -0.35762,-14.810699 8.833603,-21.440994l0.000002,-0.000001z" stroke-width="0"/>
       <path stroke="null" id="svg_75" d="m591.742363,556.919568l38.574799,-6.670975l0.662384,0.132614l-0.662384,3.512024l36.280304,7.268631c0.271423,0.14267 0.567078,0.232788 0.870667,0.264679l0,130.203705l-5.346039,0l0,-104.735001c0,-6.546524 -9.622925,-6.545807 -9.622925,0l0,104.735001l-18.707886,0c0.294525,-13.56723 -0.69516,-31.593887 -1.870605,-34.884308c-3.18219,-8.908249 -26.56395,-8.401917 -24.862686,-20.387192l23.259171,0l0,-23.014908l-32.800095,0c-3.268967,0 -6.077682,-1.62767 -7.775314,-4.506989c-9.760727,-16.554779 -10.562195,-33.077682 -4.813583,-46.464737c1.27504,-2.970032 3.706116,-4.914993 6.814194,-5.452545l-0.000002,0.000001zm68.840546,8.044617c1.033447,0 1.871307,0.863632 1.871307,1.928726c0,1.064453 -0.83786,1.928055 -1.871307,1.928055c-1.032745,0 -1.870697,-0.863602 -1.870697,-1.928055c0,-1.065094 0.837952,-1.928726 1.870697,-1.928726z" stroke-width="0"/>
       <path stroke="null" id="svg_74" d="m588.609993,616.083554l38.499496,0l0,17.661255l-38.499496,0l0,-17.661255z" stroke-width="0"/>
       <path stroke="null" id="svg_73" d="m630.317162,553.893231l36.512268,7.314911l2.237335,-11.864456l-0.856689,-1.400528l-1.424988,0.943756l-0.85733,-1.400604l-1.424957,0.943085l-0.85675,-1.400528l-1.425629,0.94368l-0.856079,-1.400482l-1.425659,0.943085l-0.856659,-1.400558l-1.425018,0.94371l-0.8573,-1.401184l-1.425018,0.943726l-0.85672,-1.400558l-1.425598,0.943085l-0.85672,-1.400497l-1.424988,0.943695l-0.85675,-1.400528l-1.424988,0.943069l-0.8573,-1.400543l-1.425018,0.943695l-0.856659,-1.401169l-1.425629,0.94371l-0.85675,-1.400543l-1.424988,0.943695l-0.856689,-1.401138l-1.425629,0.94368l-0.85611,-1.400528l-1.425629,0.943085l-0.856689,-1.400513l-1.424957,0.94368l-0.856781,-1.400536l-1.425537,0.943062l-2.237396,11.864487l-0.000002,-0.000003z" stroke-width="0"/>
       <path stroke="null" id="svg_72" d="m631.123436,691.630246l39.012573,0l0,140.774658c0,21.952942 -7.900421,39.91452 -17.555481,39.91452l-3.901611,0c-9.655121,0 -17.555481,-17.961578 -17.555481,-39.91452l0,-140.774658zm19.506256,133.853333c3.247101,0 5.880402,6.785492 5.880402,15.153046c0,8.366882 -2.633301,15.152374 -5.880402,15.152374c-3.24707,0 -5.88092,-6.785492 -5.88092,-15.152374c0,-8.367554 2.63385,-15.153046 5.88092,-15.153046z" stroke-width="0"/>
       <path stroke="null" id="svg_71" d="m652.499169,691.630246l9.622925,0l0,122.427582c0,2.259735 -1.788086,4.102661 -3.98056,4.102661l-1.662445,0c-2.191833,0 -3.979919,-1.842926 -3.979919,-4.102661l0,-122.427582l-0.000001,0z" stroke-width="0"/>
      </g>
     </g>
     <g stroke="null" transform="rotate(38.959598541259766 689.997741699219,681.1993408203125) " id="svg_61">
      <g stroke="null" id="svg_62">
       <path stroke="null" d="m712.888939,496.970631c-14.831696,-10.084656 -37.07724,-7.236549 -66.189789,7.780426c-2.020538,1.042091 -3.200592,2.948753 -3.200592,5.171097l0,8.076752l1.540527,1.237747l1.540375,-1.237747l1.540436,1.237747l1.540405,-1.237747l1.540466,1.237747l1.539795,-1.237747l1.540375,1.237747l1.540497,-1.237747l1.540375,1.237747l1.540497,-1.237747l1.540405,1.237747l1.540466,-1.237747l1.539734,1.237747l1.540497,-1.237747l1.540405,1.237747l1.540436,-1.237747l1.540436,1.237747l1.540375,-1.237747l1.540497,1.237747l1.539764,-1.237747l1.540405,1.237747l1.540436,-1.237747l1.540466,1.237747l1.540436,-1.237747l1.540466,1.237747l1.540375,-1.237747l1.539795,1.237747l1.540466,-1.237747l1.540405,1.237747l1.540436,-1.237747l0.669861,0c1.328094,0 2.4104,1.051491 2.4104,2.341743l0,141.35408c0,7.871613 6.628845,14.311035 14.730621,14.311035l0,0c8.102448,0 14.730682,-6.439423 14.730682,-14.311035c0,-53.400299 0,-91.309616 0,-143.305763c0,-10.534149 0.378998,-14.795029 -9.361633,-21.418335l0.000001,0z" id="svg_68"/>
       <path stroke="null" d="m726.017357,556.307736l-40.880737,-6.663956l-0.701996,0.132523l0.701996,3.508286l-38.449036,7.260925c-0.287659,0.142502 -0.601013,0.232559 -0.92276,0.26442l0,130.065918l5.665649,0l0,-104.624222c0,-6.539536 10.198151,-6.53891 10.198151,0l0,104.624222l19.826172,0c-0.312103,-13.552856 0.736725,-31.56041 1.982452,-34.847427c3.372375,-8.898834 28.151886,-8.393097 26.348938,-20.365555l-24.649567,0l0,-22.990509l34.760864,0c3.464355,0 6.440979,-1.626068 8.240082,-4.502274c10.344208,-16.537292 11.193573,-33.042755 5.101349,-46.415543c-1.351288,-2.966919 -3.927673,-4.909836 -7.221558,-5.446808l0.000001,0zm-72.95575,8.036057c-1.095154,0 -1.983154,0.862717 -1.983154,1.926666c0,1.063354 0.888,1.926056 1.983154,1.926056c1.094574,0 1.982513,-0.862701 1.982513,-1.926056c0,-1.06395 -0.887939,-1.926666 -1.982513,-1.926666z" id="svg_67"/>
       <path stroke="null" d="m729.336998,615.409131l-40.801025,0l0,17.642487l40.801025,0l0,-17.642487z" id="svg_66"/>
       <path stroke="null" d="m685.13662,553.284589l-38.694885,7.307205l-2.371155,-11.851959l0.907959,-1.399017l1.510162,0.942688l0.908569,-1.399063l1.510193,0.942047l0.907898,-1.399033l1.510834,0.942703l0.907318,-1.399017l1.510834,0.942078l0.907928,-1.399063l1.510132,0.942719l0.908569,-1.399704l1.510223,0.942703l0.907928,-1.399048l1.510864,0.942093l0.907867,-1.399078l1.510193,0.942688l0.907898,-1.399017l1.510223,0.942078l0.908569,-1.399033l1.510162,0.942688l0.907959,-1.399689l1.510803,0.942734l0.907959,-1.399078l1.510193,0.942703l0.907898,-1.399689l1.510773,0.942719l0.907318,-1.39904l1.510834,0.94207l0.907959,-1.39901l1.510132,0.942635l0.907928,-1.399025l1.510834,0.942085l2.371124,11.851929l0.000003,-0.000002z" id="svg_65"/>
       <path stroke="null" d="m684.282128,690.875851l-41.344635,0l0,140.625763c0,21.929749 8.372681,39.872314 18.604889,39.872314l4.134827,0c10.232239,0 18.604919,-17.942566 18.604919,-39.872314l0,-140.625763zm-20.672363,133.711823c-3.441162,0 -6.231873,6.778351 -6.231873,15.136871c0,8.358215 2.79071,15.136505 6.231873,15.136505c3.441254,0 6.232544,-6.77829 6.232544,-15.136505c0,-8.358521 -2.79129,-15.136871 -6.232544,-15.136871z" id="svg_64"/>
       <path stroke="null" d="m661.628624,690.875851l-10.198151,0l0,122.298096c0,2.257416 1.894958,4.098358 4.218506,4.098358l1.76178,0c2.322876,0 4.217865,-1.840942 4.217865,-4.098358l0,-122.298096z" id="svg_63"/>
      </g>
     </g>
    </g>
   </g>
  </g>
 </g>
</svg>